{
  "asset": {
    "generator": "Khronos glTF Blender I/O v4.4.56",
    "version": "2.0"
  },
  "extensionsUsed": [
    "KHR_texture_transform",
    "KHR_materials_specular",
    "KHR_materials_sheen"
  ],
  "extensionsRequired": [
    "KHR_texture_transform"
  ],
  "scene": 0,
  "scenes": [
    {
      "name": "Scene",
      "nodes": [
        0
      ]
    }
  ],
  "nodes": [
    {
      "mesh": 0,
      "name": "sphere_gltf"
    }
  ],
  "materials": [
    {
      "doubleSided": true,
      "extensions": {
        "KHR_materials_specular": {
          "specularTexture": {
            "extensions": {
              "KHR_texture_transform": {
                "scale": [
                  0.9853949546813965,
                  1
                ]
              }
            },
            "index": 0
          }
        },
        "KHR_materials_sheen": {
          "sheenColorFactor": [
            1,
            1,
            1
          ],
          "sheenRoughnessFactor": 0.4227053225040436
        }
      },
      "name": "curly_teddy_natural",
      "normalTexture": {
        "extensions": {
          "KHR_texture_transform": {
            "scale": [
              0.9853949546813965,
              1
            ]
          }
        },
        "index": 1
      },
      "pbrMetallicRoughness": {
        "baseColorTexture": {
          "extensions": {
            "KHR_texture_transform": {
              "scale": [
                0.9853949546813965,
                1
              ]
            }
          },
          "index": 2
        },
        "metallicRoughnessTexture": {
          "extensions": {
            "KHR_texture_transform": {
              "scale": [
                0.9853949546813965,
                1
              ]
            }
          },
          "index": 3
        }
      }
    }
  ],
  "meshes": [
    {
      "name": "Sphere.001",
      "primitives": [
        {
          "attributes": {
            "POSITION": 0,
            "NORMAL": 1,
            "TEXCOORD_0": 2
          },
          "indices": 3,
          "material": 0
        }
      ]
    }
  ],
  "textures": [
    {
      "sampler": 0,
      "source": 0
    },
    {
      "sampler": 0,
      "source": 1
    },
    {
      "sampler": 0,
      "source": 2
    },
    {
      "sampler": 0,
      "source": 3
    }
  ],
  "images": [
    {
      "mimeType": "image/jpeg",
      "name": "curly_teddy_natural_spec_ior",
      "uri": "textures/curly_teddy_natural_spec_ior_2k.jpg"
    },
    {
      "mimeType": "image/jpeg",
      "name": "curly_teddy_natural_nor_gl",
      "uri": "textures/curly_teddy_natural_nor_gl_2k.jpg"
    },
    {
      "mimeType": "image/jpeg",
      "name": "curly_teddy_natural_diff",
      "uri": "textures/curly_teddy_natural_diff_2k.jpg"
    },
    {
      "mimeType": "image/jpeg",
      "name": "curly_teddy_natural_metal-curly_teddy_natural_rough",
      "uri": "textures/curly_teddy_natural_arm_2k.jpg"
    }
  ],
  "accessors": [
    {
      "bufferView": 0,
      "componentType": 5126,
      "count": 53929,
      "max": [
        0.16563153266906738,
        0.16576342284679413,
        0.16537418961524963
      ],
      "min": [
        -0.16563159227371216,
        -0.16601303219795227,
        -0.16537369787693024
      ],
      "type": "VEC3"
    },
    {
      "bufferView": 1,
      "componentType": 5126,
      "count": 53929,
      "type": "VEC3"
    },
    {
      "bufferView": 2,
      "componentType": 5126,
      "count": 53929,
      "type": "VEC2"
    },
    {
      "bufferView": 3,
      "componentType": 5123,
      "count": 322170,
      "type": "SCALAR"
    }
  ],
  "bufferViews": [
    {
      "buffer": 0,
      "byteLength": 647148,
      "byteOffset": 0,
      "target": 34962
    },
    {
      "buffer": 0,
      "byteLength": 647148,
      "byteOffset": 647148,
      "target": 34962
    },
    {
      "buffer": 0,
      "byteLength": 431432,
      "byteOffset": 1294296,
      "target": 34962
    },
    {
      "buffer": 0,
      "byteLength": 644340,
      "byteOffset": 1725728,
      "target": 34963
    }
  ],
  "samplers": [
    {
      "magFilter": 9729,
      "minFilter": 9987
    }
  ],
  "buffers": [
    {
      "byteLength": 2370068,
      "uri": "curly_teddy_natural.bin"
    }
  ]
}